<svg xmlns="http://www.w3.org/2000/svg" xmlns:xlink="http://www.w3.org/1999/xlink" version="1.1" x="0px" y="0px" viewBox="0 0 100 125" enable-background="new 0 0 100 100" xml:space="preserve"><g><path d="M40.484,54.205c-1.235-0.204-1.692-2.982-1.682-3.752c0,0-0.818-0.367-2.816-0.531c0,0-0.244,6.73,3.346,8.405   c0,0,0.786,0.733,1.555,2.528c0,0,1.752,6.445,9.113,6.445c7.361,0,9.11-6.445,9.11-6.445c0.771-1.795,1.558-2.528,1.558-2.528   c3.59-1.674,3.346-8.405,3.346-8.405c-1.999,0.164-2.816,0.531-2.816,0.531c0.01,0.769-0.449,3.548-1.682,3.752   c-1.236,0.205-1.09,1.022-1.09,1.022c-1.023,2.557-2.217,4.083-3.377,4.972v-1.499c0-0.069-0.054-0.121-0.122-0.121H53.74   c-0.068,0-0.122,0.052-0.122,0.121v2.306c-0.099,0.039-0.197,0.073-0.293,0.104v-2.237c0-0.067-0.055-0.122-0.122-0.122H52.02   c-0.068,0-0.125,0.055-0.125,0.122v2.469c-0.101,0.001-0.197-0.001-0.293-0.005v-2.291c0-0.066-0.055-0.121-0.122-0.121h-1.184   c-0.068,0-0.124,0.055-0.124,0.121v2.007C50.06,61.007,50,60.978,50,60.978s-0.06,0.029-0.171,0.073v-2.007   c0-0.066-0.057-0.121-0.125-0.121H48.52c-0.067,0-0.122,0.055-0.122,0.121v2.291c-0.096,0.004-0.195,0.006-0.293,0.005v-2.469   c0-0.067-0.057-0.122-0.125-0.122h-1.184c-0.068,0-0.122,0.055-0.122,0.122v2.237c-0.096-0.031-0.195-0.065-0.293-0.104v-2.306   c0-0.069-0.057-0.121-0.125-0.121h-1.184c-0.068,0-0.122,0.052-0.122,0.121v1.499c-1.16-0.889-2.357-2.415-3.377-4.972   C41.575,55.226,41.72,54.41,40.484,54.205z"/><path d="M32.56,39.429c-0.501,1.245-0.875,2.614,0.247,4.731c0,0,1.352,2.241,2.793,3.737v1.244c0,0,4.285,0.373,5.23,1.494v1.742   l3.678,2.164v2.792c0,0.067,0.052,0.122,0.122,0.122h1.184c0.068,0,0.122-0.055,0.122-0.122v-1.939   c0.161,0.039,0.34,0.078,0.545,0.113v1.999c0,0.069,0.055,0.123,0.122,0.123h1.184c0.068,0,0.122-0.055,0.122-0.123v-1.833   c0.148,0.009,0.301,0.02,0.459,0.029v1.978c0,0.066,0.055,0.121,0.122,0.121h1.184c0.067,0,0.122-0.055,0.122-0.121v-1.94   c0.07,0,0.135,0.001,0.205,0.001c0.067,0,0.135-0.001,0.205-0.001v1.94c0,0.066,0.054,0.121,0.119,0.121h1.186   c0.068,0,0.122-0.055,0.122-0.121V55.7c0.158-0.009,0.311-0.019,0.459-0.029v1.833c0,0.069,0.054,0.123,0.122,0.123h1.183   c0.068,0,0.122-0.055,0.122-0.123v-1.999c0.203-0.035,0.385-0.074,0.545-0.113v1.939c0,0.067,0.055,0.122,0.122,0.122h1.184   c0.07,0,0.122-0.055,0.122-0.122V54.54l3.678-2.164v-1.742c0.945-1.121,5.23-1.494,5.23-1.494v-1.244   c1.441-1.495,2.793-3.737,2.793-3.737c1.119-2.117,0.747-3.486,0.246-4.731c-0.496-1.246,1.62-8.342,1.62-8.342   c1.62-4.481,0-11.081,0-11.081s-1.991-5.229-7.815-8.963c-4.571-2.933-9.355-3.256-11.2-3.26c-0.016,0-0.029,0-0.044,0   c-0.016,0-0.029,0-0.044,0c-1.846,0.004-6.629,0.327-11.2,3.26c-5.825,3.734-7.815,8.963-7.815,8.963s-1.62,6.599,0,11.081   C30.94,31.087,33.056,38.183,32.56,39.429z M52.852,37.143c0,0,1.373-6.679,9.474-3.69c0,0,4.369,2.366,2.692,7.221   c-1.316,3.818-5.183,3.984-9.038,1.992C55.98,42.666,52.458,39.712,52.852,37.143z M50.711,45.027c0.68,0,1.23,1.261,1.23,2.815   c0,1.555-0.55,2.815-1.23,2.815c-0.677,0-0.524-1.26-0.524-2.815C50.187,46.288,50.034,45.027,50.711,45.027z M49.286,45.027   c0.68,0,0.527,1.261,0.527,2.815c0,1.555,0.153,2.815-0.527,2.815c-0.677,0-1.228-1.26-1.228-2.815   C48.058,46.288,48.609,45.027,49.286,45.027z M37.673,33.453c8.101-2.989,9.474,3.69,9.474,3.69   c0.394,2.57-3.128,5.523-3.128,5.523c-3.854,1.992-7.722,1.826-9.041-1.992C33.305,35.819,37.673,33.453,37.673,33.453z"/><path d="M75.772,71.048c-0.298-0.664-0.797-1.195-1.42-1.534c0.052-0.517-0.031-1.042-0.249-1.524   c-0.483-1.078-1.563-1.776-2.746-1.776c-0.428,0-0.844,0.089-1.236,0.266c-0.735,0.328-1.295,0.925-1.581,1.678   c-0.203,0.535-0.249,1.102-0.143,1.647L50,78.081l-18.398-8.277c0.107-0.545,0.06-1.112-0.143-1.647   c-0.285-0.753-0.849-1.35-1.581-1.678c-0.392-0.177-0.807-0.266-1.236-0.266c-1.181,0-2.263,0.698-2.746,1.776   c-0.218,0.482-0.301,1.007-0.249,1.524c-0.623,0.339-1.121,0.869-1.42,1.534c-0.361,0.8-0.387,1.69-0.075,2.51   c0.311,0.818,0.921,1.467,1.721,1.826c0.423,0.192,0.875,0.291,1.339,0.291c0.921,0,1.783-0.384,2.395-1.037l14.024,6.308   l-6.662,2.997c-0.563-0.735-1.443-1.186-2.396-1.186c-0.426,0-0.844,0.091-1.236,0.269c-1.513,0.68-2.193,2.466-1.508,3.98   c0.213,0.482,0.556,0.892,0.971,1.198c-0.159,0.691-0.091,1.413,0.207,2.079c0.53,1.174,1.703,1.934,2.993,1.934   c0.465,0,0.916-0.097,1.344-0.289c1.29-0.58,2.038-1.927,1.918-3.287L50,83.811l10.736,4.829c-0.12,1.36,0.628,2.707,1.918,3.287   c0.428,0.192,0.88,0.289,1.345,0.289c1.29,0,2.463-0.759,2.993-1.934c0.299-0.666,0.366-1.388,0.205-2.079   c0.418-0.306,0.761-0.716,0.973-1.198c0.686-1.514,0.005-3.3-1.508-3.98c-0.395-0.178-0.81-0.269-1.236-0.269   c-0.953,0-1.835,0.451-2.396,1.186l-6.662-2.997l14.023-6.308c0.612,0.653,1.474,1.037,2.391,1.037c0.47,0,0.919-0.099,1.345-0.291   c0.799-0.36,1.409-1.008,1.721-1.826C76.159,72.738,76.133,71.847,75.772,71.048z"/></g><text x="0" y="115" fill="#000000" font-size="5px" font-weight="bold" font-family="'Helvetica Neue', Helvetica, Arial-Unicode, Arial, Sans-serif">Created by Daniela Baptista</text><text x="0" y="120" fill="#000000" font-size="5px" font-weight="bold" font-family="'Helvetica Neue', Helvetica, Arial-Unicode, Arial, Sans-serif">from the Noun Project</text></svg>