<svg xmlns="http://www.w3.org/2000/svg" xmlns:xlink="http://www.w3.org/1999/xlink" version="1.1" x="0px" y="0px" viewBox="0 0 100 125" enable-background="new 0 0 100 100" xml:space="preserve"><g><path fill="#000000" d="M49.677,4.541C29.452,4.541,14.2,19.34,14.2,38.965c0,20.063,22.877,56.494,35.477,56.494   c12.6,0,35.477-36.431,35.477-56.494C85.153,19.34,69.901,4.541,49.677,4.541z M49.677,94.459   c-12.244,0-34.477-35.786-34.477-55.494c0-19.055,14.822-33.424,34.477-33.424c19.655,0,34.477,14.369,34.477,33.424   C84.153,58.673,61.921,94.459,49.677,94.459z"/><path fill="#000000" d="M36.582,44.636c-5.707-3.949-12.612-5.441-19.439-4.198l-0.492,0.089l0.09,0.492   c2.28,12.53,13.244,21.335,25.554,21.335c1.538,0,3.098-0.138,4.664-0.422l0.492-0.09l-0.09-0.492   C46.117,54.522,42.29,48.586,36.582,44.636z"/><path fill="#000000" d="M82.212,40.439c-14.104-2.566-27.653,6.816-30.219,20.912l-0.089,0.492l0.491,0.09   c1.566,0.284,3.125,0.422,4.663,0.422c12.309,0,23.273-8.805,25.556-21.335l0.089-0.492L82.212,40.439z"/></g><text x="0" y="115" fill="#000000" font-size="5px" font-weight="bold" font-family="'Helvetica Neue', Helvetica, Arial-Unicode, Arial, Sans-serif">Created by Brad Avison</text><text x="0" y="120" fill="#000000" font-size="5px" font-weight="bold" font-family="'Helvetica Neue', Helvetica, Arial-Unicode, Arial, Sans-serif">from the Noun Project</text></svg>