<svg xmlns="http://www.w3.org/2000/svg" xmlns:xlink="http://www.w3.org/1999/xlink" version="1.0" x="0px" y="0px" viewBox="0 0 100 125" enable-background="new 0 0 100 100" xml:space="preserve"><path d="M81.667,56.7V38.192L90,33.333L50,9.999L10,33.333l8.333,4.861V56.7l23.86,13.919c3.451,2.012,6.426,5.736,7.806,9.382  c1.38-3.646,4.355-7.37,7.806-9.382l3.861-2.252v8.301l-5,13.333h16.666l-5-13.333V64.474L81.667,56.7z M75,52.872l-6.667,3.887  V45.971L75,42.083V52.872z M50,17.718l26.768,15.615L66.692,39.21l-13.385-7.808l-6.615,3.86l13.385,7.807L50,48.946L23.231,33.333  L50,17.718z M54.446,64.857C52.884,65.77,51.38,66.935,50,68.275c-1.38-1.341-2.884-2.506-4.447-3.418L25,52.872V42.083l25,14.585  l11.667-6.811v10.788L54.446,64.857z"/><text x="0" y="115" fill="#000000" font-size="5px" font-weight="bold" font-family="'Helvetica Neue', Helvetica, Arial-Unicode, Arial, Sans-serif">Created by Danil Polshin</text><text x="0" y="120" fill="#000000" font-size="5px" font-weight="bold" font-family="'Helvetica Neue', Helvetica, Arial-Unicode, Arial, Sans-serif">from the Noun Project</text></svg>