<svg xmlns="http://www.w3.org/2000/svg" xmlns:xlink="http://www.w3.org/1999/xlink" version="1.1" x="0px" y="0px" viewBox="0 0 100 125" style="enable-background:new 0 0 100 100;" xml:space="preserve"><path d="M45.081,89V49.109c0-0.553-0.447-1-1-1s-1,0.447-1,1V89c0,0.553,0.447,1,1,1S45.081,89.553,45.081,89z"/><path d="M57.108,89V49.109c0-0.553-0.447-1-1-1s-1,0.447-1,1V89c0,0.553,0.447,1,1,1S57.108,89.553,57.108,89z"/><path d="M76.587,26.082h-7.808v-5.137h9.21c0.553,0,1-0.447,1-1V11c0-0.553-0.447-1-1-1H22.2c-0.553,0-1,0.447-1,1v8.945  c0,0.553,0.447,1,1,1h9.21v5.137h-7.809c-7.465,0-13.538,6.068-13.538,13.528S16.137,53.14,23.602,53.14  c3.037,0,5.72-1.047,7.809-2.88V89c0,0.553,0.447,1,1,1s1-0.447,1-1V47.994c1.155-1.682,1.971-3.71,2.342-6.014h28.685  c0.371,2.304,1.187,4.333,2.343,6.015V89c0,0.553,0.447,1,1,1s1-0.447,1-1V50.26c2.089,1.832,4.771,2.88,7.808,2.88  c7.465,0,13.538-6.069,13.538-13.529S84.052,26.082,76.587,26.082z M23.2,12h53.789v6.945H23.2V12z M33.41,20.945h33.369v5.137  H33.41V20.945z M76.587,51.14c-5.299,0-9.205-3.657-10.154-9.389c0.029-3.119,1.404-6.411,5.196-6.411  c3.932,0,5.333,3.363,5.333,6.512c0,0.553,0.447,1,1,1s1-0.447,1-1c0-5.091-2.947-8.512-7.333-8.512  c-3.82,0-6.459,2.549-7.065,6.641H35.624c-0.609-4.091-3.257-6.641-7.091-6.641c-4.386,0-7.333,3.421-7.333,8.512  c0,0.553,0.447,1,1,1s1-0.447,1-1c0-3.148,1.401-6.512,5.333-6.512c3.811,0,5.194,3.292,5.223,6.411  c-0.95,5.732-4.855,9.389-10.154,9.389c-6.362,0-11.538-5.172-11.538-11.529c0-6.356,5.176-11.528,11.538-11.528h52.985  c6.362,0,11.538,5.172,11.538,11.528C88.125,45.968,82.949,51.14,76.587,51.14z"/><text x="0" y="115" fill="#000000" font-size="5px" font-weight="bold" font-family="'Helvetica Neue', Helvetica, Arial-Unicode, Arial, Sans-serif">Created by Made by Made</text><text x="0" y="120" fill="#000000" font-size="5px" font-weight="bold" font-family="'Helvetica Neue', Helvetica, Arial-Unicode, Arial, Sans-serif">from the Noun Project</text></svg>