<svg xmlns="http://www.w3.org/2000/svg" xmlns:xlink="http://www.w3.org/1999/xlink" xml:space="preserve" style="shape-rendering:geometricPrecision;text-rendering:geometricPrecision;image-rendering:optimizeQuality;" viewBox="0 0 9.8322 22.971875" x="0px" y="0px" fill-rule="evenodd" clip-rule="evenodd"><defs><style type="text/css">
   
    .fil0 {fill:black}
   
  </style></defs><g><path class="fil0" d="M6.55083 18.1318c-0.182698,0.365396 -0.124299,0.305497 -0.341597,-0.0620994 0.129399,-1.09709 0.258797,-2.19408 0.388196,-3.29117 -0.243298,0.139699 -0.486495,0.279397 -0.729693,0.419196 0.165598,-0.310497 0.331197,-0.620994 0.496795,-0.931491 -1.22269,-0.611494 -1.33129,-0.258797 -1.49028,-1.76978 0.586894,0.446095 0.910291,0.359396 1.64558,0.450195 -0.544894,-0.431296 -0.96509,-0.595694 -1.50308,-1.11729 -0.110899,-0.464595 -0.150798,-0.777492 -0.193998,-1.25319 0.468295,0.384596 0.694393,0.491395 1.23709,0.759992 0.319397,-0.522395 -1.27689,-0.157598 -1.18459,-2.39748 0.200798,0.138799 0.401596,0.277597 0.602394,0.416396 0.0614994,-0.361096 -0.564994,-0.598494 -0.836691,-0.784292 -0.314097,-1.33859 -0.484895,-1.81848 -1.08339,-3.05637 0.598594,0.0165998 1.05449,-0.0339997 1.64948,-0.097099 -2.40108,-0.376596 -3.03427,-1.41749 -5.20705,-5.41734 2.16818,0.345796 3.20367,0.659093 4.22066,2.45808 -0.0215998,-0.328797 -0.0431996,-0.657593 -0.0646993,-0.98649 1.56408,0.768792 2.56997,1.50538 2.84607,3.34747 0.0269997,-0.307297 0.0538995,-0.614494 0.0808992,-0.921791 1.80668,1.99888 1.92828,2.93577 1.43929,5.51444 0.183298,-0.695393 0.366596,-1.39079 0.549894,-2.08608 0.502195,1.46649 0.689093,2.41588 0.760092,3.99426 -0.508395,0.444895 -0.613994,0.496695 -1.22899,0.776292 0.339597,0.0484995 0.679193,0.096999 1.01879,0.145499 -0.377496,1.55708 -0.633294,1.47239 -1.98908,2.32868 0.195898,-2.25088 0.726793,-5.31495 -0.711493,-7.68132 1.04089,4.25446 0.388796,7.13673 -0.370596,11.2428z"/></g><text x="0" y="33.3775" fill="#000000" font-size="5px" font-weight="bold" font-family="'Helvetica Neue', Helvetica, Arial-Unicode, Arial, Sans-serif">Created by FELIX FX</text><text x="0" y="38.3775" fill="#000000" font-size="5px" font-weight="bold" font-family="'Helvetica Neue', Helvetica, Arial-Unicode, Arial, Sans-serif">from the Noun Project</text></svg>