<svg xmlns="http://www.w3.org/2000/svg" xmlns:xlink="http://www.w3.org/1999/xlink" version="1.1" x="0px" y="0px" viewBox="0 0 50 62.5" enable-background="new 0 0 50 50" xml:space="preserve"><g><path d="M6.5,26C4,26,2.2,28,2.2,30.2v14.5c0,2.4,1.9,4.2,4.2,4.2c2.3,0,4.2-1.9,4.2-4.2l0-14.5C10.7,28.1,9,26,6.5,26z M5.4,44.4   c0,0.5-0.4,1-1,1c-0.6,0-1-0.4-1-1V30.6c0-0.5,0.4-1,1-1c0.5,0,1,0.4,1,1V44.4z M9.5,44.4c0,0.5-0.4,1-1,1s-1-0.4-1-1V30.6   c0-0.6,0.4-1,1-1c0.5,0,1,0.4,1,1V44.4z"/><path d="M7.5,24.1V9.5l1.2-2.8L8.1,1H4.8L4.2,6.6l1.2,2.8v14.6C6,24,6.8,23.9,7.5,24.1z"/><path d="M24.1,12.4c1.9-1,3.3-3,3.3-5.4c0-3.3-2.7-6-6-6c-3.3,0-6.1,2.7-6.1,6c0,2.5,1.5,4.7,3.7,5.6c0,15.2-0.3-5.2,0,24.8   c-0.1,0,0,0-0.4,0.2c-2,1-3.3,3-3.3,5.4c0,3.3,2.7,6,6,6s6-2.7,6-6c0-2.5-1.5-4.7-3.7-5.6c0-2.5,0,9.2,0-24.7c0,0,0,0,0.1,0   C23.8,12.5,24,12.5,24.1,12.4z M25.8,43c0,2.5-2,4.5-4.5,4.5c-2.5,0-4.5-2-4.5-4.5c0-2.5,2-4.5,4.5-4.5S25.8,40.5,25.8,43z    M22.6,10.2l-1.3,1.3L20,10.2l-1.9,0l0-1.9L16.8,7l1.3-1.3V3.9l1.9,0l1.3-1.3l1.3,1.3l1.9,0l0,1.9L25.8,7l-1.3,1.3v1.9L22.6,10.2z"/><path d="M42.4,29.6c0,1.1,0.9,2,2,2h0c1.1,0,2-0.9,2-2v-6.8c-1.7,0.1-3,0.7-4.1,1.6V29.6z"/><path d="M46.4,9.6V3.8c0-1.5-1.3-2.8-2.8-2.8h-3.3c-3,0-4.8,0.5-6.1,1.3c-1.2,0.7-2,2.4-2,2.4v0.8h9.5c0.4,0,0.6,0.3,0.6,0.6v3.4   H46.4z"/><path d="M46.1,14.1h-2.8c-0.9,0-1.7,0.7-1.7,1.7v0.5c0,0.9,0.7,1.7,1.7,1.7h2.8c0.9,0,1.7-0.7,1.7-1.7v-0.5   C47.8,14.8,47,14.1,46.1,14.1z"/><path d="M47.1,18.8h-3.8c-1.4,0-2.5-1.1-2.5-2.5v-0.5c0-1.4,1.1-2.5,2.5-2.5h3.8c0.4,0,0.6-0.3,0.6-0.6V12c0-0.3-0.3-0.6-0.6-0.6   h-6.9V9h-8.1v2.3h1.1v35.2c0,1.4,1.2,2.6,2.6,2.5c1.3-0.1,2.3-1.2,2.3-2.5V30.8c0-6.4,3.4-9.5,8.2-9.9c0.2,0,0.5,0,0.7,0   c0.4,0,0.6-0.3,0.6-0.6v-0.9C47.8,19.1,47.5,18.8,47.1,18.8z M36.7,46c0,0.5-0.4,1-1,1c-0.5,0-1-0.4-1-1v-5.5c0-0.5,0.4-1,1-1   c0.5,0,1,0.4,1,1V46z"/></g><text x="0" y="65" fill="#000000" font-size="5px" font-weight="bold" font-family="'Helvetica Neue', Helvetica, Arial-Unicode, Arial, Sans-serif">Created by Vectors Market</text><text x="0" y="70" fill="#000000" font-size="5px" font-weight="bold" font-family="'Helvetica Neue', Helvetica, Arial-Unicode, Arial, Sans-serif">from the Noun Project</text></svg>