<svg xmlns="http://www.w3.org/2000/svg" xmlns:xlink="http://www.w3.org/1999/xlink" version="1.1" x="0px" y="0px" viewBox="0 0 128 160" enable-background="new 0 0 128 128" xml:space="preserve"><path d="M115.111,100.146c-3.365,0-6.426,1.307-8.725,3.426l-17.1-13.049c0.349-0.836,0.545-1.75,0.545-2.711  c0-3.883-3.16-7.043-7.043-7.043c-2.323,0-4.371,1.145-5.654,2.883l-11.96-5.553c0.01-0.221,0.034-0.439,0.034-0.662  c0-8.318-6.766-15.086-15.083-15.086c-2.977,0-5.747,0.879-8.089,2.371l-3.121-16.273c2.83-0.807,5.076-3.008,5.935-5.816  l20.656,8.932c-0.189,0.791-0.298,1.611-0.298,2.459c0,5.9,4.801,10.699,10.702,10.699c2.594,0,4.973-0.928,6.827-2.471  l15.251,10.592c-0.273,0.918-0.425,1.887-0.425,2.891c0,5.594,4.555,10.146,10.154,10.146c5.597,0,10.148-4.553,10.148-10.146  c0-5.598-4.552-10.152-10.148-10.152c-3.742,0-7.011,2.041-8.771,5.063L84.384,60.528c1.389-1.805,2.225-4.057,2.225-6.506  c0-0.422-0.031-0.836-0.079-1.246l6.124-0.861c1.292,3.182,4.412,5.434,8.053,5.434c4.789,0,8.687-3.896,8.687-8.686  c0-4.791-3.897-8.688-8.687-8.688c-4.792,0-8.691,3.896-8.691,8.688c0,0.322,0.021,0.643,0.055,0.957l-6.079,0.855  c-0.961-2.723-2.99-4.941-5.587-6.15L90.81,25.636c0.148,0.01,0.29,0.045,0.441,0.045c4.285,0,7.77-3.486,7.77-7.77  c0-4.287-3.484-7.775-7.77-7.775c-4.289,0-7.778,3.488-7.778,7.775c0,3.277,2.049,6.074,4.928,7.213L78.134,43.56  c-0.717-0.152-1.459-0.236-2.223-0.236c-3.941,0-7.382,2.146-9.239,5.326L45.192,39.36c-0.276-3.26-2.354-6.012-5.235-7.25  l1.854-18.535c3.075-0.113,5.548-2.637,5.548-5.74c0-3.177-2.584-5.762-5.761-5.762c-3.179,0-5.766,2.585-5.766,5.762  c0,2.711,1.89,4.977,4.417,5.588l-1.82,18.199c-0.608-0.135-1.238-0.213-1.889-0.213c-2.863,0-5.4,1.396-6.984,3.541l-6.235-4.564  c0.665-1.059,1.066-2.299,1.066-3.639c0-3.781-3.076-6.859-6.856-6.859c-3.783,0-6.862,3.078-6.862,6.859  c0,3.783,3.079,6.859,6.862,6.859c1.878,0,3.579-0.762,4.818-1.988l6.389,4.678c-0.564,1.15-0.889,2.438-0.889,3.801  c0,4.533,3.492,8.262,7.928,8.65l3.496,18.232c-2.618,2.715-4.238,6.396-4.238,10.457c0,0.078,0.011,0.152,0.013,0.229  l-18.486,3.012c-1.384-2.969-4.387-5.035-7.869-5.035C3.9,75.642,0,79.538,0,84.329c0,4.789,3.9,8.686,8.692,8.686  c4.789,0,8.687-3.896,8.687-8.686c0-0.742-0.104-1.461-0.28-2.152l18.055-2.938c0.577,4.803,3.417,8.912,7.423,11.238l-7.049,7.385  c-1.482-0.756-3.154-1.193-4.93-1.193c-6.003,0-10.888,4.881-10.888,10.881c0,5.998,4.885,10.879,10.888,10.879  c5.998,0,10.878-4.881,10.878-10.879c0-3.084-1.295-5.867-3.363-7.848l7.509-7.867c1.424,0.445,2.937,0.688,4.505,0.688  c6.972,0,12.836-4.762,14.558-11.199l11.193,5.178c-0.082,0.426-0.135,0.861-0.135,1.311c0,3.883,3.162,7.041,7.047,7.041  c1.788,0,3.406-0.691,4.649-1.793l16.905,12.9c-1.34,2.035-2.128,4.465-2.128,7.078c0,7.107,5.785,12.889,12.896,12.889  c7.106,0,12.889-5.781,12.889-12.889S122.218,100.146,115.111,100.146z"/><text x="0" y="143" fill="#000000" font-size="5px" font-weight="bold" font-family="'Helvetica Neue', Helvetica, Arial-Unicode, Arial, Sans-serif">Created by Rflor</text><text x="0" y="148" fill="#000000" font-size="5px" font-weight="bold" font-family="'Helvetica Neue', Helvetica, Arial-Unicode, Arial, Sans-serif">from the Noun Project</text></svg>