<svg xmlns="http://www.w3.org/2000/svg" data-name="Layer 1" viewBox="0 0 128 160" x="0px" y="0px"><title>Artboard 46</title><path d="M64,49a6,6,0,1,0-6-6A6,6,0,0,0,64,49Zm0-8a2,2,0,1,1-2,2A2,2,0,0,1,64,41Z"/><path d="M18.35,127.13A2,2,0,0,0,20,128h4a2,2,0,0,0,1.8-1.12l22-45.13a42.09,42.09,0,0,0,32.39,0l22,45.11A2,2,0,0,0,104,128h4a2,2,0,0,0,1.86-2.73L90.49,75.63a41.79,41.79,0,0,0,14.33-22.71,2,2,0,1,0-3.89-.94A37.87,37.87,0,0,1,89,71.7L78.76,45.58A14.65,14.65,0,0,0,79,43,15,15,0,0,0,66,28.15V24h2a2,2,0,0,0,2-2V6A6,6,0,0,0,58,6V22a2,2,0,0,0,2,2h2v4.15A15,15,0,0,0,49,43a14.65,14.65,0,0,0,.24,2.58l-31.1,79.69A2,2,0,0,0,18.35,127.13ZM62,6a2,2,0,0,1,4,0V20H62Zm2,75a37.73,37.73,0,0,1-14.43-2.85L59.71,57.37a14.92,14.92,0,0,0,8.58,0l10.15,20.8A38,38,0,0,1,64,81Zm40.36,41.19L83.82,80.06c1.14-.61,2.26-1.26,3.33-2ZM85.66,74.26a36.84,36.84,0,0,1-3.6,2.2L71.94,55.71a15.09,15.09,0,0,0,4.68-4.63ZM64,32A11,11,0,1,1,53,43,11,11,0,0,1,64,32ZM51.38,51.08a15.09,15.09,0,0,0,4.68,4.63L23.64,122.19Z"/><text x="0" y="143" fill="#000000" font-size="5px" font-weight="bold" font-family="'Helvetica Neue', Helvetica, Arial-Unicode, Arial, Sans-serif">Created by Juraj Sedlák</text><text x="0" y="148" fill="#000000" font-size="5px" font-weight="bold" font-family="'Helvetica Neue', Helvetica, Arial-Unicode, Arial, Sans-serif">from the Noun Project</text></svg>